<svg xmlns="http://www.w3.org/2000/svg" width="229.73" height="61.213" viewBox="0 0 229.73 61.213">
  <path id="logo" data-name="logo" d="M30576.012,28062.645h33.188v8.85h-30.234v3.5h30.234v6.086h4.059v15.486h-37.246v-2.949h0v-6.084h30.422v-3.5h-34.477v-15.3h4.055v-6.084Zm63.611,12.537,1.842-2.58a2.873,2.873,0,0,0,1.477,1.105,6.562,6.562,0,0,0,1.844.367,1.39,1.39,0,0,0,.922-.184.4.4,0,0,0,.367-.367c0-.186-.184-.186-.184-.371a.678.678,0,0,1-.553-.184,1.668,1.668,0,0,1-.922-.184,2.011,2.011,0,0,1-.922-.184,7.976,7.976,0,0,0-.922-.186,1.41,1.41,0,0,1-.922-.369,3.187,3.187,0,0,1-.922-.738,2.487,2.487,0,0,1-.553-.736c0-.369-.186-.922-.186-1.291a2.663,2.663,0,0,1,.369-1.289,1.691,1.691,0,0,1,.738-1.107,4.013,4.013,0,0,1,1.475-.922,6.868,6.868,0,0,1,2.027-.186,6.155,6.155,0,0,1,4.426,1.477l-1.66,2.211a5.6,5.6,0,0,0-1.475-.736,5.343,5.343,0,0,0-1.66-.369c-.553,0-.922.184-.922.555,0,.184.186.184.186.367a.678.678,0,0,1,.553.184,1.653,1.653,0,0,1,.922.186,2,2,0,0,1,.922.186,7.963,7.963,0,0,0,.922.184c.369.184.738.184.922.367a3.289,3.289,0,0,1,.922.738,2.534,2.534,0,0,1,.553.738c0,.367.186.738.186,1.289a3.315,3.315,0,0,1-1.291,2.766,6.1,6.1,0,0,1-3.5.922A7.367,7.367,0,0,1,30639.623,28075.182Zm0,16.594,1.105-1.475a2.866,2.866,0,0,0,1.475,1.105,3.712,3.712,0,0,0,2.027.553,2.093,2.093,0,0,0,1.477-.553,1.116,1.116,0,0,0,.553-1.105.678.678,0,0,0-.186-.555c-.184-.184-.367-.367-.553-.367-.184-.186-.553-.186-.922-.369a7.889,7.889,0,0,0-.922-.186c-.369-.184-.736-.184-1.105-.367s-.553-.186-.922-.369-.553-.369-.922-.553a4.022,4.022,0,0,1-.553-.922,6.534,6.534,0,0,1-.186-1.107,2.63,2.63,0,0,1,1.107-2.213,4.538,4.538,0,0,1,2.766-.922,5.739,5.739,0,0,1,4.055,1.477l-.922,1.475a6.426,6.426,0,0,0-1.475-.922,5.344,5.344,0,0,0-1.658-.369,3.459,3.459,0,0,0-1.477.369,1.982,1.982,0,0,0-.367,1.105.676.676,0,0,0,.184.553c.184,0,.369.186.553.369.186,0,.553.186.738.186.369.184.736.184,1.105.367a7.889,7.889,0,0,1,.922.186l1.107.553c.367,0,.553.369.736.553a1.448,1.448,0,0,1,.738.738c0,.369.184.736.184,1.291a2.611,2.611,0,0,1-.369,1.105,2.332,2.332,0,0,1-.736,1.105c-.186.369-.738.555-1.291.738a5.467,5.467,0,0,1-1.844.369A6.106,6.106,0,0,1,30639.623,28091.775Zm17.146-.922a7.724,7.724,0,0,1-.738-2.951,6.833,6.833,0,0,1,.738-2.766,5.347,5.347,0,0,1,2.027-2.027,4.806,4.806,0,0,1,2.766-.738,6.838,6.838,0,0,1,2.213.371,6.6,6.6,0,0,1,1.844,1.289,12.87,12.87,0,0,1,1.105,1.66,9.185,9.185,0,0,1,.369,2.211,6.844,6.844,0,0,1-.369,2.213,16.114,16.114,0,0,1-1.105,1.844,3.844,3.844,0,0,1-1.844,1.107,3.945,3.945,0,0,1-2.213.553,6.833,6.833,0,0,1-2.766-.738A7.076,7.076,0,0,1,30656.77,28090.854Zm1.289-2.951a4.526,4.526,0,0,0,.922,2.766,2.994,2.994,0,0,0,2.582,1.291,2.794,2.794,0,0,0,2.582-1.291,4.012,4.012,0,0,0,0-5.531,3.1,3.1,0,0,0-2.582-1.105,3.355,3.355,0,0,0-2.582,1.105A4.535,4.535,0,0,0,30658.059,28087.9Zm15.857,5.348,4.24-10.693h2.4l4.057,10.693h-2.027l-.738-2.027h-4.979l-.922,2.027Zm3.5-3.687h3.871l-2.027-5.162Zm15.119,3.688v-10.693h4.609a3.64,3.64,0,0,1,2.58.922,3.241,3.241,0,0,1,1.107,2.4,2.678,2.678,0,0,1-.369,1.291,1.014,1.014,0,0,1-.553.922c-.186.369-.553.553-.736.736-.371.186-.555.186-.922.369l2.58,4.057h-2.213l-2.4-3.871h-1.844v3.871Zm1.844-5.531h2.58a1.885,1.885,0,0,0,1.844-1.844,1.313,1.313,0,0,0-.551-1.105,1.68,1.68,0,0,0-1.293-.555h-2.58Zm14.936,5.531v-10.693h7.375v1.658h-5.531v2.766h5.344v1.66h-5.344v2.949h5.531v1.66Zm15.3-1.475.922-1.475a2.87,2.87,0,0,0,1.477,1.105,3.708,3.708,0,0,0,2.027.553c.738,0,1.291-.184,1.477-.553a1.115,1.115,0,0,0,.551-1.105.682.682,0,0,0-.184-.555c-.184-.184-.367-.367-.553-.367-.186-.186-.553-.186-.736-.369-.371,0-.738-.186-1.107-.186-.369-.184-.736-.184-.922-.367-.369-.186-.736-.186-1.107-.369a2.612,2.612,0,0,1-.736-.553,1.016,1.016,0,0,1-.553-.922,1.568,1.568,0,0,1-.369-1.107,2.63,2.63,0,0,1,1.107-2.213,4.7,4.7,0,0,1,2.949-.922,6.069,6.069,0,0,1,4.055,1.477l-1.105,1.475a6.426,6.426,0,0,0-1.475-.922,5.356,5.356,0,0,0-1.658-.369,2.148,2.148,0,0,0-1.293.369,1.316,1.316,0,0,0-.551,1.105.676.676,0,0,0,.184.553c.184,0,.367.186.553.369a7.976,7.976,0,0,0,.922.186c.186.184.553.184.922.367.369,0,.736.186,1.107.186.367.184.551.369.922.553.367,0,.551.369.922.553a2.56,2.56,0,0,1,.551.738,2.717,2.717,0,0,1,.186,1.291c0,.367-.186.736-.186,1.105-.184.553-.551.738-.736,1.105a3.7,3.7,0,0,1-1.475.738,5.477,5.477,0,0,1-1.844.369A5.4,5.4,0,0,1,30724.617,28091.775Zm-68.77-15.119,3.871-10.879h4.24l3.873,10.879h-3.687l-.369-1.289h-3.873l-.367,1.289Zm4.977-4.055h2.029l-.922-3.5Zm14.2,4.055v-10.879h3.318l3.871,5.164v-5.164h3.137v10.879h-3.137l-3.871-5.531v5.531Zm18.623,0v-10.879h4.793a7.871,7.871,0,0,1,3.133.738,3.355,3.355,0,0,1,2.029,1.844,5.105,5.105,0,0,1,.922,2.949,4.526,4.526,0,0,1-.922,2.766,3.35,3.35,0,0,1-2.029,1.844,5.4,5.4,0,0,1-2.949.738Zm3.316-2.949h1.477a2.511,2.511,0,0,0,2.027-.738,2.739,2.739,0,0,0,.738-1.66,2.823,2.823,0,0,0-.738-1.844,2.141,2.141,0,0,0-1.844-.736h-1.66Zm15.3,2.949v-10.879h8.113v2.951h-4.98v1.107h4.793v2.766h-4.793v1.105h4.98v2.949Zm16.039,0v-10.879h5.9a3.718,3.718,0,0,1,2.027.555,2.9,2.9,0,0,1,1.289,1.289,3.708,3.708,0,0,1,.555,2.029c0,.369-.184.736-.184,1.107a4.163,4.163,0,0,1-.555.922,2.541,2.541,0,0,1-.553.736,1.394,1.394,0,0,1-.736.369l2.027,3.871h-3.687l-1.66-3.5h-1.105v3.5Zm3.32-6.27h2.027a1.114,1.114,0,0,0,.738-.184.956.956,0,0,0,.367-.738c0-.184-.184-.367-.367-.551a1.105,1.105,0,0,0-.738-.186h-2.027Zm13.459,4.795,1.658-2.58a2.7,2.7,0,0,0,1.66,1.105,5.479,5.479,0,0,0,1.844.367,1.665,1.665,0,0,0,.922-.184c.184,0,.184-.184.184-.367s0-.186-.184-.371a1.433,1.433,0,0,1-.553-.184,1.39,1.39,0,0,1-.736-.184,1.662,1.662,0,0,1-.922-.184,7.8,7.8,0,0,1-.922-.186,2.628,2.628,0,0,1-1.107-.369c-.186-.184-.553-.367-.736-.738a2.489,2.489,0,0,1-.555-.736,3.152,3.152,0,0,1-.184-1.291,2.735,2.735,0,0,1,.184-1.289,1.892,1.892,0,0,1,.922-1.107,2.918,2.918,0,0,1,1.477-.922,5.64,5.64,0,0,1,1.844-.186,6.62,6.62,0,0,1,4.609,1.477l-1.66,2.211a6.646,6.646,0,0,0-1.66-.736,5.343,5.343,0,0,0-1.66-.369c-.551,0-.736.184-.736.555,0,.184,0,.184.186.367a.674.674,0,0,1,.551.184,1.1,1.1,0,0,1,.738.186,1.373,1.373,0,0,1,.922.186c.369,0,.738.184,1.105.184.371.184.555.184.922.367a1.441,1.441,0,0,1,.738.738c.369.184.555.369.555.738a2.739,2.739,0,0,1,.184,1.289,3.753,3.753,0,0,1-1.105,2.766,6.549,6.549,0,0,1-3.5.922A7.376,7.376,0,0,1,30745.084,28075.182Zm17.146-1.658a4.7,4.7,0,0,1-.367-2.215,5.068,5.068,0,0,1,.367-2.395,5.718,5.718,0,0,1,1.291-1.66,3.81,3.81,0,0,1,1.844-1.105,5.072,5.072,0,0,1,2.4-.555,4.877,4.877,0,0,1,2.213.555,3.128,3.128,0,0,1,1.844,1.105,5.718,5.718,0,0,1,1.291,1.66,5.109,5.109,0,0,1,.553,2.395,4.938,4.938,0,0,1-.553,2.215,6.68,6.68,0,0,1-1.291,1.844,8.168,8.168,0,0,1-1.844,1.105,7.405,7.405,0,0,1-4.609,0,16.579,16.579,0,0,1-1.844-1.105A6.68,6.68,0,0,1,30762.23,28073.523Zm3.5-4.242a3.718,3.718,0,0,0-.555,2.027,3.106,3.106,0,0,0,.555,1.844,2.511,2.511,0,0,0,2.027.738,2.361,2.361,0,0,0,1.844-.738,3.265,3.265,0,0,0,.738-1.844,3.87,3.87,0,0,0-.738-2.027,2.368,2.368,0,0,0-1.844-.738A2.518,2.518,0,0,0,30765.734,28069.281Zm15.672,7.375v-10.879h3.318l3.688,5.164v-5.164h3.318v10.879h-3.133l-4.059-5.531v5.531ZM30563.66,28049h59.553v61.213H30562V28049Zm56.418,3.135h-54.941v54.943h54.941Zm-41.113,41.484h31.342v-9.588h-1.107v6.27h-30.234Zm27.469-15.672h-30.422v-6.453h-1.105v9.588h31.527Zm0-12.354h-27.469v3.135h27.469Z" transform="translate(-30562 -28049)" fill-rule="evenodd"/>
</svg>
